<svg xmlns="http://www.w3.org/2000/svg" width="18.19" height="15.722" viewBox="0 0 20 20" class="MuiSvgIcon-root MuiSvgIcon-colorPrimary MuiSvgIcon-fontSizeSmall" focusable="false" color="#FCFCFC" aria-hidden="true"><g id="Group_12513" data-name="Group 12513" transform="translate(-6596.584 1375)"><path id="Subtraction_75" data-name="Subtraction 75" d="M7.088,14.159a1.878,1.878,0,0,1-1.294-.65l-.885-.878a.264.264,0,0,0-.212-.091H3.449a1.875,1.875,0,0,1-1.372-.456,1.871,1.871,0,0,1-.458-1.374V9.462a.278.278,0,0,0-.085-.212L.65,8.365A1.876,1.876,0,0,1,0,7.071,1.876,1.876,0,0,1,.65,5.778L1.534,4.9a.288.288,0,0,0,.085-.212V3.439A1.611,1.611,0,0,1,3.449,1.6H4.7a.27.27,0,0,0,.212-.085L5.794.646A2.049,2.049,0,0,1,6.91,0,6.874,6.874,0,0,0,5.774,2.926l-.119.119a.533.533,0,0,1-.406.164l-1.418.006c-.521,0-.606.086-.606.612V5.239a.548.548,0,0,1-.17.406L2.05,6.65c-.369.37-.369.491,0,.86L3.055,8.516a.5.5,0,0,1,.164.406v1.412c.006.52.1.612.612.612l1.418.006a.5.5,0,0,1,.406.158l1.006,1.006c.175.176.3.277.429.277s.252-.1.425-.277L8.521,11.11a.511.511,0,0,1,.412-.158l1.412-.006c.345,0,.51-.036.572-.248a7.036,7.036,0,0,0,1.633.226,1.743,1.743,0,0,1-.449,1.16,1.876,1.876,0,0,1-1.374.456H9.478a.264.264,0,0,0-.212.091l-.885.878A1.876,1.876,0,0,1,7.088,14.159Z" transform="translate(6596.584 -1373.437)" fill="#fcfcfc"></path><path id="Subtraction_74" data-name="Subtraction 74" d="M5.495,10.989a5.495,5.495,0,0,1-3.885-9.38A5.495,5.495,0,1,1,9.38,9.38,5.459,5.459,0,0,1,5.495,10.989ZM6.961,1.584a.247.247,0,0,0-.178.077L2.873,5.816a.244.244,0,0,0,.178.412H4.675L3.794,9.089a.245.245,0,0,0,.412.24L8.117,5.174a.245.245,0,0,0-.178-.412H6.315L7.195,1.9a.243.243,0,0,0-.111-.284A.241.241,0,0,0,6.961,1.584Z" transform="translate(6603.785 -1375)" fill="#fcfcfc"></path></g></svg>